<svg width="151" height="68" viewBox="0 0 151 68" fill="none" xmlns="http://www.w3.org/2000/svg">
<path d="M7.62931 14.9027L7.83394 14.8625C8.19969 14.8497 8.39866 14.9359 8.43087 15.1213C8.62085 19.4541 8.87829 28.1575 9.20313 41.2316C17.0056 32.8482 23.5978 26.2572 28.9797 21.4589C29.868 20.637 30.4499 20.2118 30.7255 20.1831C31.0372 20.1381 31.2668 20.2149 31.4143 20.4135L31.4449 20.5235C31.4711 20.7724 31.0028 21.255 30.0401 21.9714C26.2158 25.4507 21.9492 29.5986 17.2401 34.4151C14.5301 37.1748 11.8639 40.0495 9.24136 43.0391L9.6022 51.3419C11.9365 51.3886 16.8665 51.3797 24.3922 51.3149C29.1887 51.4204 32.6334 51.5532 34.7264 51.7131L34.7926 51.8006L34.8291 51.9666C34.7274 52.2036 34.5764 52.3325 34.3761 52.3534L34.2821 52.3631C27.9251 52.1052 19.8249 52.0032 9.98134 52.0572C9.9774 52.0199 9.86768 51.9998 9.65211 51.997L9.65806 52.053C10.045 58.3781 10.3913 62.6317 10.6968 64.814C10.7591 65.2856 10.9148 66.043 11.1638 67.0864C10.9831 67.2938 10.8182 67.4116 10.6692 67.4397L10.3875 67.4689C10.1008 67.5113 9.84923 66.745 9.63285 65.1698C9.30504 62.776 8.94375 58.3793 8.54892 51.9796C5.51218 51.7541 3.91939 51.1145 3.77054 50.0607L3.74894 49.8554C3.55876 48.5292 4.99854 46.0901 8.06825 42.5383C7.64285 33.802 7.24296 24.7674 6.86868 15.4345C7.03894 15.1275 7.29247 14.9503 7.62931 14.9027ZM5.23989 49.5873C5.36051 50.493 6.46435 51.0577 8.55137 51.2812L8.5455 51.2251C8.50154 50.9278 8.36772 48.6334 8.14412 44.3418C6.07294 46.7961 5.10488 48.5446 5.23989 49.5873ZM31.4088 39.6796L31.6341 39.6561C32.0348 39.6145 32.3929 39.8289 32.7083 40.2993C32.9892 40.0814 33.2173 39.9634 33.3926 39.9452L33.4301 39.9413C33.618 39.9218 33.7876 40.0299 33.9391 40.2658C33.597 43.0311 33.4751 44.8804 33.5733 45.8136L33.6067 46.1309C33.6145 46.2056 33.6092 46.2753 33.5907 46.3402C33.7464 46.9781 33.9058 47.2886 34.0685 47.2718L34.1625 47.2619C34.7815 47.009 35.7884 45.6905 37.1834 43.3064C37.85 41.9414 38.3022 41.2466 38.5402 41.2219L38.728 41.2024C38.8908 41.1855 39.0038 41.2366 39.067 41.3558L39.0807 41.4865C36.8503 45.555 35.151 47.6939 33.983 47.9033L33.7013 47.9325C33.1879 47.9859 32.855 47.5299 32.7028 46.5645L32.6111 46.2344C32.53 45.4629 32.5827 44.0988 32.7692 42.1422L32.6753 42.152C32.2799 43.0861 31.5182 44.2094 30.3903 45.5216C29.6577 46.1387 29.0909 46.468 28.6902 46.5096C28.1439 46.4909 27.8498 46.2824 27.8079 45.8843L27.7588 45.4176C27.7253 44.377 28.2021 43.0129 29.1892 41.3253C29.9801 40.2997 30.72 39.7511 31.4088 39.6796ZM29.2419 45.0748L29.3417 45.121L29.3981 45.1152C30.0735 44.3155 30.8131 43.1631 31.6169 41.6581C31.8359 41.3334 31.9442 41.1586 31.9416 41.1337C31.8038 41.1481 31.6154 41.0419 31.3763 40.8151C31.0382 40.8502 30.5206 41.6462 29.8236 43.203C29.4083 44.1896 29.2144 44.8135 29.2419 45.0748ZM39.1676 28.0614L39.8063 27.9951C39.9065 27.9847 40.0241 28.0793 40.159 28.2792C39.9563 29.7218 39.8982 30.8537 39.9846 31.6749L40.0785 31.6652C46.8052 31.1048 50.9824 30.74 52.6104 30.5709L52.7448 30.7645L52.7565 30.8764C52.7036 31.0958 52.5019 31.2237 52.1512 31.2601L39.9603 32.5266C40.0199 38.5083 40.4412 45.2196 41.2241 52.6609L41.4107 54.4341C41.4212 54.5336 41.3259 54.6504 41.1248 54.7846L40.7115 54.8275L40.4931 54.737C40.2321 52.9778 40.059 51.6938 39.9739 50.8849L39.8757 49.9517C39.0993 42.5727 38.6704 36.8118 38.589 32.6691C34.9764 33.1072 32.1545 33.5388 30.1229 33.9636C29.7632 33.9129 29.5767 33.8254 29.5637 33.701L29.542 33.4957C29.491 33.0104 32.5148 32.4509 38.6134 31.8174L38.6016 31.7054C38.3947 29.7393 38.5834 28.5247 39.1676 28.0614ZM46.5812 37.7071L47.0133 37.6623C47.4641 37.6154 47.7937 37.9208 48.0022 38.5784C48.103 39.5365 47.5277 40.4454 46.2762 41.3051C46.0263 41.4569 45.5698 41.6301 44.9066 41.8247C44.6245 42.873 44.5017 43.5713 44.5384 43.9197L44.5737 44.2557C44.6366 44.853 45.0641 45.186 45.8562 45.2547C46.8204 45.1544 48.2178 43.9967 50.0482 41.7812C50.4842 41.2328 50.9286 40.5828 51.3812 39.8313L51.6313 39.8619C51.7709 39.9858 51.8285 40.1119 51.804 40.2402L51.8138 40.3335C51.5693 41.3779 50.4119 42.8316 48.3419 44.6945C47.3079 45.4561 46.4716 45.87 45.833 45.9364L45.5324 45.9676C44.5681 46.0677 43.8637 45.5686 43.4189 44.47C43.3696 44.3619 43.3357 44.2208 43.3174 44.0466L43.2762 43.6546C43.1243 42.2112 43.78 40.5014 45.2431 38.5254C45.8346 38.0111 46.2807 37.7383 46.5812 37.7071ZM45.3731 40.663L45.4106 40.6591C45.9031 40.4066 46.2415 40.013 46.4257 39.4781C46.4911 39.2574 46.5166 39.0787 46.5023 38.9418C46.1725 39.1773 45.8731 39.5796 45.6038 40.1485C45.446 40.4542 45.3691 40.6256 45.3731 40.663ZM78.7253 6.98851L78.8942 6.97095C80.3246 7.08655 81.3474 10.0686 81.9625 15.917C82.0986 16.6074 82.1686 16.9712 82.1723 17.0085C82.536 20.4678 83.0098 27.677 83.593 38.6361L86.1288 38.3726C86.2039 38.3648 86.2946 38.4434 86.401 38.6086L86.4181 38.7766C86.3668 39.0083 86.128 39.1464 85.7026 39.1906L83.6733 39.4013C83.9739 45.0184 84.2781 49.2952 84.5868 52.2319C84.9171 55.3677 85.35 57.5618 85.887 58.8142C85.6728 59.063 85.4028 59.2042 85.077 59.2381C84.5139 59.2966 83.9992 57.1109 83.5328 52.681L83.5246 52.6064C83.2315 49.819 82.8893 45.4832 82.4981 39.5989L82.4044 39.6087C80.8014 39.7752 77.3901 40.444 72.1711 41.6152C71.5469 45.4287 70.6239 51.8773 69.4021 60.9608L68.9303 61.3495L68.179 61.4275C68.0636 61.4144 67.9359 61.2829 67.7957 61.0333C68.2641 57.4247 69.165 51.0665 70.4981 41.9588C67.7099 42.651 65.4067 43.2614 63.5887 43.7899L63.3258 43.8172C63.2381 43.8263 63.1135 43.726 62.9523 43.5164L62.9346 43.3484C62.8835 42.8631 65.4788 42.0211 70.7204 40.8225C71.81 33.2496 73.2265 24.995 74.9704 16.0585C76.3465 10.1289 77.5984 7.10559 78.7253 6.98851ZM72.3092 40.5819C72.4154 40.508 72.4997 40.4678 72.5623 40.4613C77.1551 39.5942 80.4659 39.0552 82.4944 38.8445L82.4847 38.7511C81.967 28.8923 81.4716 21.7169 80.9985 17.2248L80.8728 16.0302C80.3305 10.8786 79.6655 8.34376 78.8763 8.42573C77.9249 8.52462 76.38 15.3208 74.2423 28.8142C73.4959 33.0304 72.8516 36.953 72.3092 40.5819ZM88.004 22.9881L88.6422 22.9218C88.7426 22.9114 88.8602 23.006 88.9948 23.2059C88.7925 24.6484 88.7344 25.7803 88.8207 26.6016L88.9145 26.5919C95.641 26.0314 99.8184 25.6666 101.447 25.4975L101.581 25.6911L101.593 25.8031C101.54 26.0225 101.338 26.1504 100.987 26.1868L88.7962 27.4532C88.8557 33.4349 89.2775 40.1463 90.06 47.5875L90.2467 49.3608C90.2571 49.4602 90.1619 49.5771 89.961 49.7112L89.5475 49.7541L89.3288 49.6636C89.0684 47.9045 88.8951 46.6204 88.8096 45.8116L88.7114 44.8784C87.9356 37.4993 87.5064 31.7385 87.4253 27.5957C83.8124 28.0339 80.9903 28.4654 78.9589 28.8903C78.5989 28.8396 78.4129 28.7521 78.3995 28.6276L78.3779 28.4223C78.3274 27.937 81.3511 27.3776 87.4491 26.744L87.4379 26.6321C87.2304 24.666 87.4193 23.4514 88.004 22.9881ZM93.8439 19.3057L94.1444 19.2745C94.32 19.2562 94.4799 19.334 94.6249 19.5076L94.6324 19.5822C94.2843 21.6815 93.9949 24.7684 93.7651 28.8429C93.6817 31.5435 93.675 33.7644 93.7442 35.5058C95.5994 33.1621 96.7605 31.9219 97.2269 31.7854L97.4523 31.7619C97.8026 31.7255 97.993 31.8442 98.0213 32.1179C98.0332 32.2299 97.5125 32.8186 96.46 33.884C94.7365 35.7865 93.8618 37.0409 93.8372 37.6473L93.9153 38.3939C93.9287 38.5184 94.2322 38.5749 94.8258 38.5635C96.2659 38.4139 98.2675 37.4638 100.831 35.7132C101.412 35.1117 101.773 34.8039 101.911 34.7896C102.153 34.8022 102.278 34.8521 102.287 34.9391L102.301 35.0698C101.63 35.907 100.585 36.6884 99.1676 37.4143C97.1875 38.4503 95.5837 39.032 94.3572 39.1595L93.9436 39.2024L94.0693 40.397C94.0715 40.4219 94.0604 40.4356 94.0358 40.4382L94.0827 40.5276L94.189 41.5356C94.2255 41.884 94.3021 42.4296 94.4181 43.1722C94.2835 43.3372 94.16 43.4255 94.047 43.4372L93.7658 43.4665C93.5902 43.4847 93.4281 42.7845 93.2786 41.366C93.1789 40.4202 93.0859 39.6563 92.9996 39.0741C92.682 38.9435 92.508 38.7351 92.4782 38.4489L92.4507 38.1876C92.4604 37.7967 92.5846 37.4126 92.8233 37.0356C92.5147 33.9857 92.467 29.8017 92.6798 24.4836C92.8732 22.1111 93.0658 20.5124 93.2578 19.6873C93.4861 19.4498 93.681 19.3226 93.8439 19.3057ZM102.896 32.0644L103.215 32.0313C103.415 32.0105 103.576 32.0882 103.695 32.2645L103.701 32.3204C103.472 34.7217 103.403 36.3454 103.492 37.1916L103.533 37.5835C103.585 38.0688 103.741 38.3607 104.005 38.4591C104.732 38.3836 105.995 36.9755 107.795 34.2349L108.071 34.1496L108.277 34.1282C108.328 34.1229 108.39 34.1731 108.464 34.2786C108.503 34.6394 107.555 35.9203 105.622 38.1213C104.983 38.6657 104.5 38.9548 104.174 38.9887L103.799 39.0277C103.236 39.0863 102.774 38.5492 102.414 37.4167C102.353 37.1966 102.308 36.9497 102.279 36.676L102.211 36.0226C102.061 33.5222 102.168 32.2532 102.531 32.2155L102.896 32.0644ZM102.351 30.4982C102.43 30.7668 102.657 30.8816 103.033 30.8426L103.202 30.825C103.415 30.8029 103.608 30.5941 103.782 30.1987C103.813 30.1326 103.824 30.0621 103.817 29.9875L103.789 29.7262C103.788 29.7138 103.799 29.7062 103.825 29.7037L103.781 29.6516L103.779 29.6329C103.758 29.4338 103.666 29.2736 103.5 29.1523L102.978 29.0557C102.423 29.2014 102.194 29.6026 102.288 30.2595L102.351 30.4982ZM109.491 30.5112L109.661 30.4936C109.94 30.5024 110.088 30.5876 110.105 30.7494C110.005 33.892 109.985 35.8062 110.045 36.4919L110.047 36.5106L110.084 36.5067C111.434 33.5738 112.517 32.0713 113.332 31.9992C113.96 31.9466 114.393 32.6941 114.631 34.2417C114.729 35.414 114.96 36.2204 115.322 36.6607C115.431 36.7249 115.535 36.7519 115.635 36.7414L115.71 36.7336C116.325 36.6823 117.642 35.4763 119.659 33.1156C119.652 33.0534 119.804 32.9873 120.113 32.9175C120.263 32.9019 120.389 32.9518 120.49 33.0671L120.487 33.2184C119.917 33.9442 119.193 34.7554 118.312 35.652C117.076 36.7742 116.131 37.3629 115.479 37.4181C114.662 37.4778 114.138 36.9535 113.908 35.8453C113.659 34.3239 113.484 33.5684 113.385 33.5788C113.376 33.5041 113.289 33.4503 113.121 33.4175C112.657 33.4656 111.878 34.9051 110.783 37.736C110.4 38.6689 110.121 39.1445 109.946 39.1628C109.851 39.2229 109.735 39.2602 109.597 39.2745L109.39 39.296C109.055 39.2427 108.873 39.0163 108.844 38.6168L108.787 38.0755C108.675 36.5273 108.684 34.1426 108.813 30.9214C108.989 30.6641 109.215 30.5274 109.491 30.5112ZM123.046 28.3106L123.403 28.2736C123.746 28.2882 123.928 28.3951 123.949 28.5942C123.975 28.843 123.586 29.11 122.78 29.3949C122.059 30.1239 121.74 30.8804 121.822 31.6644C121.888 32.2866 122.584 33.1263 123.911 34.1835C124.294 34.6972 124.493 35.0287 124.509 35.178L124.565 35.1722C126.566 33.0145 127.724 31.9194 128.036 31.8868L128.356 31.8536C128.418 31.8471 128.488 31.9029 128.563 32.0208L128.577 32.1514L124.913 35.9475C124.735 36.0665 124.611 36.5133 124.541 37.288C124.238 38.2629 123.657 39.2353 122.797 40.2052C122.202 40.808 121.71 41.1295 121.322 41.1698L121.135 41.1893C120.909 41.2127 120.736 41.1301 120.615 40.9414L120.595 40.7548C120.528 40.1202 121.533 38.6068 123.612 36.2147L123.584 35.9534C123.514 35.2814 122.721 34.4957 121.209 33.5961C120.705 33.1328 120.426 32.646 120.372 32.1358L120.358 32.0052C120.221 30.6986 120.891 29.5534 122.37 28.5695C122.645 28.4151 122.87 28.3289 123.046 28.3106ZM121.614 40.3282L121.62 40.3842C122.533 39.3206 123.093 38.5015 123.298 37.9266L123.241 37.9325C122.399 38.9509 121.856 39.7495 121.614 40.3282ZM130.396 29.0566L130.678 29.0273C130.953 28.9987 131.194 29.1121 131.398 29.3677L131.412 29.4983C131.286 29.7504 131.035 29.8959 130.66 29.9349C130.085 30.9633 129.789 32.1324 129.775 33.4421C129.765 33.5816 129.769 33.7384 129.787 33.9126L129.834 34.3606C129.918 35.157 130.17 35.6277 130.59 35.7727L130.609 35.7708C131.16 35.7135 131.421 34.6361 131.389 32.5385L131.301 31.6987C130.757 31.34 130.471 31.0238 130.442 30.7501L130.43 30.6381C130.399 30.3395 130.626 30.0957 131.113 29.9068L131.206 29.897C131.682 29.8476 132.006 30.2794 132.179 31.1923C132.373 31.3608 132.872 31.4663 133.674 31.5088L134.406 31.4326C134.945 31.3767 135.46 31.2225 135.953 30.9701L136.157 30.93C136.366 30.9838 136.455 31.1129 136.426 31.3172L136.288 31.4448C136.125 31.5874 135.792 31.729 135.288 31.8694C134.831 31.9797 134.452 32.0506 134.152 32.0817L133.814 32.1168C133.326 32.1676 132.822 32.1381 132.304 32.0284L132.308 32.0657C132.524 34.1189 132.006 35.5691 130.753 36.4163C130.559 36.4993 130.393 36.5479 130.256 36.5623L130.068 36.5818C129.266 36.6651 128.699 36.0825 128.365 34.834L128.3 34.2181C128.166 32.9489 128.416 31.5958 129.05 30.1587C129.472 29.4734 129.92 29.106 130.396 29.0566ZM137.421 27.6097L137.591 27.5922C137.87 27.6008 138.018 27.6861 138.036 27.8479C137.935 30.9906 137.915 32.9047 137.975 33.5904L137.977 33.6091L138.014 33.6052C139.364 30.6723 140.446 29.1698 141.262 29.0977C141.889 29.0451 142.322 29.7926 142.561 31.3402C142.659 32.5125 142.89 33.3188 143.253 33.7591C143.361 33.8234 143.465 33.8503 143.565 33.8399L143.64 33.8322C144.255 33.7808 145.571 32.5748 147.589 30.2141C147.583 30.1519 147.734 30.0859 148.043 30.016C148.193 30.0003 148.318 30.0502 148.42 30.1655L148.417 30.3168C147.847 31.0427 147.122 31.8539 146.242 32.7504C145.005 33.8727 144.061 34.4614 143.408 34.5166C142.592 34.5763 142.068 34.052 141.837 32.9438C141.589 31.4224 141.414 30.6668 141.314 30.6772C141.306 30.6026 141.218 30.5489 141.05 30.516C140.587 30.5641 139.808 32.0036 138.713 34.8346C138.33 35.7675 138.051 36.243 137.876 36.2612C137.781 36.3214 137.664 36.3586 137.527 36.373L137.32 36.3944C136.985 36.3411 136.804 36.1148 136.774 35.7153L136.717 35.174C136.605 33.6258 136.613 31.2411 136.743 28.0199C136.918 27.7626 137.144 27.6259 137.421 27.6097Z" fill="#EA1826"/>
</svg>
